# AST/ASF file generated using VICON BodyLanguage
# -----------------------------------------------
:version 1.10
:name VICON
:units
  mass 1.0
  length 0.45
  angle deg
:documentation
   .ast/.asf automatically generated from VICON data using
   VICON BodyBuilder and BodyLanguage model FoxedUp or BRILLIANT.MOD
:root
   order TX TY TZ RX RY RZ
   axis XYZ
   position 0 0 0  
   orientation 0 0 0 
:bonedata
  begin
     id 1 
     name lhipjoint
     direction 0.522423 -0.726805 0.445902 
     length 2.25074 
     axis 0 0 0  XYZ
  end
  begin
     id 2 
     name lfemur
     direction 0.34202 -0.939693 0  
     length 6.54609  
     axis 0 0 20  XYZ
    dof rx ry rz
    limits (-160.0 20.0)
           (-70.0 70.0)
           (-60.0 70.0)
  end
  begin
     id 3 
     name ltibia
     direction 0.34202 -0.939693 0   
     length 7.7528   
     axis 0 0 20   XYZ
    dof rx
    limits (-10.0 170.0)
  end
  begin
     id 4 
     name lfoot
     direction 0.143696 -0.394801 0.90746   
     length 1.73269   
     axis -90 7.62852e-016 20   XYZ
    dof rx rz
    limits (-45.0 90.0)
           (-70.0 20.0)
  end
  begin
     id 5 
     name ltoes
     direction 1.53633e-011 -4.21912e-011 1   
     length 0.858383   
     axis -90 7.62852e-016 20   XYZ
    dof rx
    limits (-90.0 20.0)
  end
  begin
     id 6 
     name rhipjoint
     direction -0.515943 -0.73016 0.447961   
     length 2.2404  
     axis 0 0 0  XYZ 
  end
  begin
     id 7 
     name rfemur
     direction -0.34202 -0.939693 0   
     length 6.84377   
     axis 0 0 -20   XYZ
    dof rx ry rz
    limits (-160.0 20.0)
           (-70.0 70.0)
           (-70.0 60.0)
  end
  begin
     id 8 
     name rtibia
     direction -0.34202 -0.939693 0   
     length 7.57596   
     axis 0 0 -20   XYZ
    dof rx
    limits (-10.0 170.0)
 end
 begin
     id 9 
     name rfoot
     direction -0.0999372 -0.274575 0.956358   
     length 1.78783  
     axis -90 -7.62852e-016 -20   XYZ
    dof rx rz
    limits (-45.0 90.0)
           (-20.0 70.0)
  end
  begin
     id 10 
     name rtoes
     direction -1.53535e-011 -4.21895e-011 1   
     length 0.898614   
     axis -90 -7.62852e-016 -20   XYZ
    dof rx
    limits (-90.0 20.0)
  end
  begin
     id 11 
     name lowerback
     direction -0.011775 0.996164 -0.0867116   
     length 1.91499   
     axis 0 0 0   XYZ
    dof rx ry rz
    limits (-20.0 45.0)
           (-30.0 30.0)
           (-30.0 30.0)
  end
  begin
     id 12 
     name upperback
     direction -0.00189771 0.999673 -0.0254833   
     length 1.92213   
     axis 0 0 0   XYZ
    dof rx ry rz
    limits (-20.0 45.0)
           (-30.0 30.0)
           (-30.0 30.0)
  end
  begin
     id 13 
     name thorax
     direction 0.00335995 0.999878 0.0152401   
     length 1.93138   
     axis 0 0 0   XYZ
    dof rx ry rz
    limits (-20.0 45.0)
           (-30.0 30.0)
           (-30.0 30.0)
  end
  begin
     id 14 
     name lowerneck
     direction 0.00233191 0.998509 0.0545404   
     length 1.59408   
     axis 0 0 0   XYZ
    dof rx ry rz
    limits (-20.0 45.0)
           (-30.0 30.0)
           (-30.0 30.0)
  end
  begin
     id 15 
     name upperneck
     direction 0.07881 0.9956 -0.0506934   
     length 1.59344   
     axis 0 0 0   XYZ
    dof rx ry rz
    limits (-20.0 45.0)
           (-30.0 30.0)
           (-30.0 30.0)
  end
  begin
     id 16
     name head
     direction 0.0261681 0.999378 -0.0236299  
     length 1.60935  
     axis 0 0 0   XYZ
    dof rx ry rz
    limits (-20.0 45.0)
           (-30.0 30.0)
           (-30.0 30.0)
  end
  begin
     id 17 
     name lclavicle
     direction 0.96643 0.252035 0.0499195  
     length 3.82153  
     axis 0 0 0   XYZ
    dof ry rz
    limits (-20.0 10.0)
           (0.0 20.0)
  end
  begin
     id 18 
     name lhumerus
     direction 1 -4.48967e-011 -2.01614e-018   
     length 4.87796   
     axis 180 -30 -90   XYZ
    dof rx ry rz
    limits (-60.0 90.0)
           (-90.0 90.0)
           (-90.0 90.0)
  end
  begin
     id 19
     name lradius
     direction 1 -4.48958e-011 3.1409e-027   
     length 3.23169   
     axis 180 -30 -90   XYZ
    dof rx
    limits (-10.0 170.0)
  end
  begin
     id 20
     name lwrist
     direction 1 -4.48924e-011 1.0365e-027   
     length 1.61584   
     axis -2.56395e-016 90 90   XYZ
    dof ry
    limits (-180.0 0.0)
 end
  begin
     id 21 
     name lhand
     direction 1 -4.49055e-011 2.09488e-027   
     length 0.731324   
     axis -1.32723e-015 90 90   XYZ
    dof rx rz
    limits (-90.0 90.0)
           (-45.0 45.0)
  end
  begin
     id 22 
     name lfingers
     direction 1 -4.48935e-011 4.14981e-027   
     length 0.589612   
     axis -2.6545e-015 90 90   XYZ
    dof rx
    limits (0.0 90.0)
  end
  begin
     id 23
     name lthumb
     direction 0.707107 -6.35097e-011 0.707107   
     length 0.846569   
     axis -90 45 5.05613e-014   XYZ
    dof rx rz
    limits (-45.0 45.0)
           (-45.0 45.0)
  end
  begin
     id 24 
     name rclavicle
     direction -0.979337 0.201016 0.0221522   
     length 3.73827  
     axis 0 0 0   XYZ 
    dof ry rz
    limits (-10.0 20.0)
           (-20.0 0.0)
  end
  begin
     id 25 
     name rhumerus
     direction -1 -4.48971e-011 1.65907e-027  
     length 4.9143   
     axis 180 30 90   XYZ
    dof rx ry rz
    limits (-90.0 60.0)
           (-90.0 90.0)
           (-90.0 90.0)
  end
  begin
     id 26 
     name rradius
     direction -1 -4.4894e-011 2.17871e-028   
     length 3.29093   
     axis 180 30 90   XYZ
    dof rx
    limits (-10.0 170.0)
  end
  begin
     id 27 
     name rwrist
     direction -1 -4.48971e-011 1.04038e-027   
     length 1.64546   
     axis -2.56395e-016 -90 -90   XYZ
    dof ry
    limits (-180.0 0.0)
  end
  begin
     id 28
     name rhand
     direction -1 -4.49017e-011 2.08843e-027   
     length 0.54512   
     axis -1.32723e-015 -90 -90   XYZ
    dof rx rz
    limits (-90.0 90.0)
           (-45.0 45.0)
  end
  begin
     id 29
     name rfingers
     direction -1 -4.48918e-011 4.1439e-027   
     length 0.43949   
     axis -2.6545e-015 -90 -90   XYZ
    dof rx
    limits (0.0 90.0)
  end
  begin
     id 30
     name rthumb
     direction -0.707107 -6.35065e-011 0.707107   
     length 0.631022   
     axis -90 -45 -5.05613e-014   XYZ
    dof rx rz
    limits (-45.0 45.0)
           (-45.0 45.0)
  end
:hierarchy
  begin
    root lhipjoint rhipjoint lowerback
    lhipjoint lfemur
    lfemur ltibia
    ltibia lfoot
    lfoot ltoes
    rhipjoint rfemur
    rfemur rtibia
    rtibia rfoot
    rfoot rtoes
    lowerback upperback
    upperback thorax
    thorax lowerneck lclavicle rclavicle
    lowerneck upperneck
    upperneck head
    lclavicle lhumerus
    lhumerus lradius
    lradius lwrist
    lwrist lhand lthumb
    lhand lfingers
    rclavicle rhumerus
    rhumerus rradius
    rradius rwrist
    rwrist rhand rthumb
    rhand rfingers
  end

#!OML:ASF H:\BreakDance\Project 1\Capture day 1\Session 1\Male.ASF
:FULLY-SPECIFIED
:DEGREES
3797
root -20.6137 11.9382 1.36321 588.849 55.8568 -885.872
lowerback 22.738 -12.6006 -7.68519
upperback 4.07566 -17.1711 10.1918
thorax -2.3302 -8.80656 18.6838
lowerneck 0.0153043 -2.70931 -9.29987
upperneck 4.3871 -4.22048 20.5084
head 1.90166 -1.86546 7.80195
rclavicle 6.36111e-015 -7.95139e-014
rhumerus 47.9955 64.8856 -16.8253
rradius 75.4104
rwrist 2.0656
rhand -9.16353 -386.372
rfingers 7.12502
rthumb 16.789 1024.33
lclavicle 6.36111e-015 -7.95139e-014
lhumerus 54.0824 -21.3708 55.9707
lradius 47.2583
lwrist -8.24494
lhand -25.5141 -43.5622
lfingers 7.12502
lthumb 1.01503 -13.5849
rfemur -50.9588 3.53983 -35.4762
rtibia 38.8152
rfoot -15.9602 -10.0089
rtoes -20.1569
lfemur 427.982 122.261 141.007
ltibia 99.7596
lfoot -32.4358 -2.49554
ltoes -39.5266
3798
root -20.6971 11.8592 1.40357 587.329 55.0214 -887.35
lowerback 22.5864 -12.2806 -8.08052
upperback 4.04621 -16.8393 10.1506
thorax -2.30824 -8.63433 18.7869
lowerneck 0.161515 -3.23037 -9.63391
upperneck 4.32675 -4.94991 20.7526
head 1.98846 -2.24079 7.92147
rclavicle -8.26944e-014 -6.36111e-015
rhumerus 45.2929 64.726 -18.7751
rradius 75.4653
rwrist 1.35547
rhand -9.353 -386.608
rfingers 7.12502
rthumb 16.6066 1024.08
lclavicle -8.26944e-014 -6.36111e-015
lhumerus 53.1039 -19.4825 55.6251
lradius 46.9669
lwrist -9.19846
lhand -25.8079 -43.7199
lfingers 7.12502
lthumb 0.731307 -13.7414
rfemur -50.3788 3.3479 -35.9573
rtibia 39.8746
rfoot -16.0971 -10.2973
rtoes -22.7655
lfemur 427.447 123.179 140.817
ltibia 100.473
lfoot -32.7882 -3.30265
ltoes -39.0387
3799
root -20.7767 11.7789 1.44872 586.002 54.1048 -888.624
lowerback 22.4444 -11.9476 -8.32523
upperback 4.04205 -16.446 10.1127
thorax -2.32892 -8.42322 18.8116
lowerneck 0.378728 -3.73885 -9.96033
upperneck 4.18 -5.65348 20.9583
head 2.03746 -2.61167 8.02646
rclavicle 6.04305e-014 -2.54444e-014
rhumerus 42.5107 64.5276 -20.7849
rradius 75.7266
rwrist 0.925799
rhand -9.58735 -386.853
rfingers 7.12502
rthumb 16.381 1023.82
lclavicle 6.04305e-014 -2.54444e-014
lhumerus 52.0439 -17.5341 55.1524
lradius 46.5418
lwrist -10.0917
lhand -26.0358 -43.9144
lfingers 7.12502
lthumb 0.511186 -13.9353
rfemur -49.9897 3.12557 -36.3569
rtibia 41.1052
rfoot -16.1206 -10.4827
rtoes -25.1506
lfemur 426.688 124.126 140.583
ltibia 101.244
lfoot -32.9706 -3.99873
ltoes -38.0311
3800
root -20.8528 11.6987 1.50001 584.809 53.1027 -889.714
lowerback 22.3332 -11.5907 -8.44175
upperback 4.08965 -15.9814 10.0681
thorax -2.37237 -8.17082 18.7552
lowerneck 0.691659 -4.24048 -10.2399
upperneck 3.92887 -6.33736 21.1121
head 2.03778 -2.98286 8.10674
rclavicle 2.05146e-013 -6.36111e-014
rhumerus 39.6071 64.2614 -22.9161
rradius 76.1492
rwrist 0.836504
rhand -9.90286 -387.133
rfingers 7.12502
rthumb 16.0772 1023.51
lclavicle 2.05146e-013 -6.36111e-014
lhumerus 50.9477 -15.5862 54.4995
lradius 45.9852
lwrist -10.7416
lhand -26.2503 -43.9804
lfingers 7.12502
lthumb 0.304019 -14.0009
rfemur -49.7171 2.89916 -36.6508
rtibia 42.4715
rfoot -16.0925 -10.5642
rtoes -27.1695
lfemur 425.802 125.09 140.386
ltibia 102.057
lfoot -32.9408 -4.60036
ltoes -36.5815
3801
root -20.9241 11.6199 1.55456 583.766 51.9191 -890.574
lowerback 22.172 -11.239 -8.31486
upperback 4.23536 -15.4495 10.0308
thorax -2.37097 -7.88589 18.5446
lowerneck 1.1661 -4.73548 -10.4656
upperneck 3.49392 -6.99452 21.2348
head 1.9535 -3.35736 8.17164
rclavicle 5.725e-014 -3.97569e-014
rhumerus 36.5518 63.863 -25.2043
rradius 76.6807
rwrist 1.08955
rhand -10.2512 -387.443
rfingers 7.12502
rthumb 15.7417 1023.18
lclavicle 5.725e-014 -3.97569e-014
lhumerus 49.8779 -13.6958 53.6274
lradius 45.3049
lwrist -11.0123
lhand -26.447 -43.703
lfingers 7.12502
lthumb 0.113992 -13.7232
rfemur -49.4331 2.67699 -36.717
rtibia 43.927
rfoot -16.0667 -10.5582
rtoes -28.6723
lfemur 424.902 126.084 140.406
ltibia 102.884
lfoot -32.7077 -5.12662
ltoes -34.938
3802
root -20.9901 11.5446 1.61365 582.72 50.5974 -891.335
lowerback 22.009 -10.8756 -8.05737
upperback 4.48261 -14.8588 9.98453
thorax -2.3114 -7.57447 18.2297
lowerneck 1.81587 -5.22765 -10.6225
upperneck 2.87629 -7.63071 21.3168
head 1.78168 -3.73877 8.21871
rclavicle 5.725e-014 7.4743e-014
rhumerus 33.3915 63.3046 -27.6095
rradius 77.2803
rwrist 1.59877
rhand -10.5992 -387.808
rfingers 7.12502
rthumb 15.4066 1022.79
lclavicle 5.725e-014 7.4743e-014
lhumerus 48.8406 -11.8965 52.5421
lradius 44.5013
lwrist -10.8548
lhand -26.5658 -42.8967
lfingers 7.12502
lthumb -0.000697924 -12.9169
rfemur -49.0535 2.48718 -36.6282
rtibia 45.4401
rfoot -16.0372 -10.4618
rtoes -29.6789
lfemur 424.209 127.123 140.713
ltibia 103.661
lfoot -32.3134 -5.613
ltoes -33.4245
3803
root -21.0487 11.4739 1.67651 581.572 49.1732 -892.106
lowerback 21.9972 -10.4825 -7.70006
upperback 4.71306 -14.2101 9.54602
thorax -2.14941 -7.22609 18.177
lowerneck 2.61623 -5.72515 -10.6613
upperneck 2.13677 -8.26147 21.3249
head 1.54195 -4.1305 8.2303
rclavicle -2.70347e-014 7.31528e-014
rhumerus 30.1317 62.5681 -30.1284
rradius 77.9197
rwrist 2.25304
rhand -10.971 -388.339
rfingers 7.12502
rthumb 15.0485 1022.23
lclavicle -2.70347e-014 7.31528e-014
lhumerus 47.846 -10.2535 51.2262
lradius 43.573
lwrist -10.3467
lhand -26.608 -41.5144
lfingers 7.12502
lthumb -0.0415172 -11.5347
rfemur -48.5176 2.34603 -36.4662
rtibia 46.9935
rfoot -16.0036 -10.2524
rtoes -30.048
lfemur 423.855 128.216 141.312
ltibia 104.345
lfoot -31.8225 -6.08382
ltoes -32.3291
3804
root -21.0988 11.4083 1.74244 580.263 47.6901 -892.975
lowerback 21.8351 -10.0883 -7.36381
upperback 5.09048 -13.5502 9.42346
thorax -1.99558 -6.88214 17.6728
lowerneck 3.49391 -6.22511 -10.5237
upperneck 1.42085 -8.89267 21.182
head 1.28096 -4.52477 8.17016
rclavicle -6.83819e-014 -3.02153e-014
rhumerus 26.8143 61.7089 -32.7266
rradius 78.5814
rwrist 2.9773
rhand -11.3496 -389.086
rfingers 7.12502
rthumb 14.6836 1021.45
lclavicle -6.83819e-014 -3.02153e-014
lhumerus 46.8332 -8.78956 49.7112
lradius 42.5012
lwrist -9.67699
lhand -26.5201 -39.826
lfingers 7.12502
lthumb 0.0434345 -9.84631
rfemur -47.8111 2.25766 -36.3221
rtibia 48.5901
rfoot -15.9688 -9.93064
rtoes -29.8931
lfemur 423.884 129.38 142.14
ltibia 104.907
lfoot -31.3131 -6.51499
ltoes -31.7742
3805
root -21.1392 11.3472 1.8113 578.801 46.1831 -893.983
lowerback 21.6628 -9.67942 -7.04931
upperback 5.49738 -12.8803 9.23141
thorax -1.81141 -6.53137 17.0873
lowerneck 4.35327 -6.73261 -10.1628
upperneck 0.823961 -9.53205 20.8408
head 1.03553 -4.91502 8.01181
rclavicle -2.06736e-014 -4.6118e-014
rhumerus 23.4938 60.7074 -35.3737
rradius 79.2468
rwrist 3.71778
rhand -11.6723 -389.932
rfingers 7.12502
rthumb 14.3728 1020.59
lclavicle -2.06736e-014 -4.6118e-014
lhumerus 45.8086 -7.53305 47.96
lradius 41.2932
lwrist -9.06001
lhand -26.1996 -37.7059
lfingers 7.12502
lthumb 0.352975 -7.72644
rfemur -46.9698 2.21701 -36.2666
rtibia 50.2442
rfoot -15.9528 -9.53101
rtoes -29.6287
lfemur 424.228 130.628 143.072
ltibia 105.351
lfoot -30.868 -6.88331
ltoes -31.7015
3806
root -21.1691 11.2887 1.88333 577.249 44.6669 -895.127
lowerback 21.4377 -9.25649 -6.78134
upperback 5.91678 -12.2096 8.97428
thorax -1.5822 -6.181 16.437
lowerneck 4.98658 -7.24843 -9.52557
upperneck 0.560384 -10.1902 20.1922
head 0.890977 -5.28504 7.69932
rclavicle 6.36111e-014 4.13472e-014
rhumerus 20.2461 59.5574 -38.0069
rradius 79.9035
rwrist 4.44683
rhand -11.9036 -390.782
rfingers 7.12502
rthumb 14.1499 1019.72
lclavicle 6.36111e-014 4.13472e-014
lhumerus 44.7405 -6.47971 45.9586
lradius 40.0064
lwrist -8.70127
lhand -25.7652 -35.6753
lfingers 7.12502
lthumb 0.772515 -5.69695
rfemur -46.0531 2.20879 -36.3286
rtibia 51.9809
rfoot -15.9089 -9.09946
rtoes -29.5281
lfemur 424.756 131.963 143.978
ltibia 105.694
lfoot -30.5167 -7.20967
ltoes -31.8927
